<?xml version="1.0" standalone="no"?>
<!DOCTYPE svg PUBLIC "-//W3C//DTD SVG 20010904//EN"
 "http://www.w3.org/TR/2001/REC-SVG-20010904/DTD/svg10.dtd">
<svg version="1.0" xmlns="http://www.w3.org/2000/svg"
 width="512.000000pt" height="512.000000pt" viewBox="0 0 512.000000 512.000000"
 preserveAspectRatio="xMidYMid meet">
<metadata>
Created by potrace 1.11, written by Peter Selinger 2001-2013
</metadata>
<g transform="translate(0.000000,512.000000) scale(0.100000,-0.100000)"
fill="#000000" stroke="none">
<path d="M0 2560 l0 -2560 2560 0 2560 0 0 2560 0 2560 -2560 0 -2560 0 0
-2560z m1010 2250 c130 -25 231 -100 264 -197 19 -55 21 -160 4 -215 -16 -54
-87 -131 -150 -162 -41 -21 -47 -27 -32 -32 75 -26 139 -62 170 -97 52 -57 67
-100 68 -192 0 -65 -5 -90 -26 -137 -50 -108 -158 -183 -299 -207 -39 -6 -192
-11 -378 -11 l-312 0 3 53 3 52 63 15 62 15 0 497 0 498 -27 5 c-16 4 -39 9
-53 11 -39 9 -50 23 -50 70 l0 44 319 0 c175 0 342 -4 371 -10z m1348 -547
c123 -307 226 -563 230 -569 4 -5 25 -17 47 -25 38 -14 40 -17 43 -62 l3 -47
-180 0 -181 0 0 44 c0 49 10 60 58 71 25 5 32 11 27 23 -3 10 -24 65 -47 125
l-41 107 -271 0 -271 0 -45 -117 c-25 -64 -46 -120 -48 -124 -2 -3 17 -12 42
-18 40 -10 46 -15 52 -46 12 -66 14 -65 -186 -65 l-181 0 3 47 c3 46 4 48 48
64 l45 17 217 543 c120 299 222 554 228 567 9 20 16 22 98 22 l88 0 222 -557z
m902 513 c0 -52 -10 -62 -78 -77 l-52 -11 0 -489 0 -489 224 0 223 0 6 51 c8
69 19 79 83 79 l54 0 0 -140 0 -140 -445 0 -445 0 0 39 c0 62 7 69 71 82 l59
12 0 497 0 498 -52 11 c-68 15 -78 25 -78 77 l0 44 215 0 215 0 0 -44z m1090
8 c0 -52 -15 -72 -58 -79 -80 -14 -72 41 -72 -506 l0 -489 224 0 224 0 4 56
c6 65 15 74 81 74 l47 0 0 -140 0 -140 -441 0 -440 0 3 53 3 52 58 15 57 14 0
498 0 498 -27 5 c-91 19 -88 16 -91 73 l-3 52 215 0 216 0 0 -36z m-3462
-1564 l72 -23 0 -124 0 -123 -45 0 c-51 0 -65 16 -65 77 0 71 -7 80 -68 92
-169 34 -284 -15 -299 -126 -7 -56 19 -107 71 -138 22 -13 91 -41 151 -63 130
-46 159 -61 201 -100 48 -43 67 -89 72 -168 9 -135 -55 -252 -169 -310 -105
-53 -274 -50 -456 7 l-33 11 0 134 0 134 44 0 c25 0 48 -6 53 -12 4 -7 13 -44
18 -83 10 -70 10 -70 50 -84 57 -19 185 -26 229 -11 79 26 127 89 128 169 0
98 -36 130 -218 191 -64 22 -136 51 -160 65 -57 33 -100 92 -113 156 -15 67
-14 96 5 160 20 67 106 157 175 182 67 25 260 17 357 -13z m1102 -100 l0 -120
-44 0 c-52 0 -61 10 -70 73 l-7 47 -120 0 -119 0 0 -414 0 -413 50 -7 50 -7 0
-44 0 -45 -180 0 -180 0 0 33 c0 50 5 54 83 71 l27 6 0 410 0 410 -119 0
c-132 0 -122 5 -136 -72 -6 -38 -6 -38 -55 -38 l-50 0 0 115 0 115 435 0 435
0 0 -120z m751 -280 c87 -217 171 -429 188 -471 28 -69 35 -78 71 -92 36 -14
40 -19 40 -51 l0 -36 -155 0 -155 0 0 36 c0 31 4 37 38 51 20 8 38 16 39 17 2
2 -15 47 -36 102 l-38 99 -226 3 -225 2 -40 -102 -40 -103 39 -17 c35 -15 39
-21 39 -53 l0 -35 -155 0 -155 0 0 35 c0 32 4 37 43 54 l42 19 184 463 c102
255 187 468 189 472 2 4 38 7 80 5 l75 -3 158 -395z m1159 280 l0 -120 -43 0
c-49 0 -67 13 -67 50 -1 70 0 70 -131 70 l-119 0 2 -412 3 -413 48 -8 47 -9 0
-44 0 -44 -180 0 -180 0 0 33 c0 50 5 54 83 71 l27 6 0 410 0 411 -122 -3
-123 -3 -3 -30 c-6 -73 -8 -75 -62 -75 l-50 0 0 115 0 115 435 0 435 0 0 -120z
m900 -10 l0 -130 -37 0 c-55 0 -64 10 -70 79 l-6 61 -193 0 -194 0 0 -170 0
-170 193 -2 192 -3 3 -57 3 -58 -196 0 -195 0 0 -175 0 -175 195 0 195 0 0 38
c0 73 7 82 61 82 l49 0 0 -120 0 -120 -381 0 -380 0 3 43 c3 40 5 42 43 51 22
4 46 10 53 12 9 3 12 95 12 418 l0 416 -27 6 c-75 16 -78 18 -81 62 l-3 42
380 0 381 0 0 -130z m-3725 -1535 c39 -8 99 -29 134 -46 67 -33 172 -129 204
-186 l18 -32 -75 -51 c-41 -27 -79 -50 -83 -50 -5 0 -17 16 -28 36 -52 97
-167 156 -305 156 -105 0 -178 -25 -245 -85 -220 -192 -210 -586 19 -757 69
-52 118 -71 202 -77 134 -11 272 54 336 158 l31 49 31 -19 c17 -10 54 -31 81
-46 28 -16 52 -30 54 -31 9 -7 -52 -94 -96 -135 -105 -99 -228 -149 -383 -156
-198 -10 -350 58 -483 215 -172 204 -205 491 -84 740 46 97 168 217 267 266
129 63 266 80 405 51z m1326 -27 c57 -33 105 -87 133 -147 17 -37 21 -65 21
-146 0 -89 -3 -106 -26 -150 -29 -55 -68 -98 -112 -125 l-28 -18 43 -21 c72
-34 115 -77 150 -149 30 -60 33 -75 32 -152 0 -68 -5 -95 -23 -132 -27 -56
-90 -122 -140 -148 -92 -47 -126 -50 -488 -50 l-343 0 0 635 0 636 368 -3 367
-3 46 -27z m1239 -58 l0 -90 -330 0 -330 0 0 -180 0 -180 285 0 285 0 0 -85 0
-85 -285 0 -285 0 0 -190 0 -190 338 -2 337 -3 3 -87 3 -88 -441 0 -440 0 0
635 0 635 430 0 430 0 0 -90z m887 75 c114 -34 220 -145 263 -275 18 -53 21
-80 17 -145 -7 -102 -18 -138 -67 -214 -29 -44 -57 -72 -102 -101 -34 -22 -64
-42 -66 -44 -2 -3 37 -69 86 -148 49 -79 109 -174 132 -213 24 -38 49 -80 58
-92 l14 -23 -115 0 -116 0 -137 220 -138 220 -148 0 -148 0 0 -220 0 -220
-100 0 -100 0 0 635 0 635 308 0 c246 0 319 -3 359 -15z"/>
<path d="M620 4470 l0 -212 168 4 c155 3 171 5 216 28 28 14 64 42 80 63 29
36 31 44 31 122 0 78 -2 86 -31 122 -55 69 -85 78 -286 81 l-178 4 0 -212z"/>
<path d="M620 3914 l0 -216 193 4 c172 3 196 6 232 25 83 44 115 97 115 194 0
71 -25 127 -70 159 -57 41 -112 50 -297 50 l-173 0 0 -216z"/>
<path d="M2032 4603 c-7 -26 -56 -157 -108 -291 -51 -134 -94 -246 -94 -248 0
-2 97 -4 215 -4 118 0 215 4 215 9 0 5 -41 114 -91 242 -50 129 -99 258 -108
287 l-17 52 -12 -47z"/>
<path d="M2491 3049 c-7 -23 -46 -127 -87 -231 -41 -104 -74 -194 -74 -199 0
-5 76 -9 179 -9 l179 0 -40 103 c-22 56 -64 164 -93 239 l-52 138 -12 -41z"/>
<path d="M1820 1220 l0 -190 193 0 c247 1 286 14 328 105 50 108 -4 242 -107
266 -22 4 -123 9 -226 9 l-188 0 0 -190z"/>
<path d="M1820 675 l0 -195 208 0 c114 0 224 5 244 10 78 22 137 102 138 186
0 65 -46 144 -100 172 -42 21 -56 22 -267 22 l-223 0 0 -195z"/>
<path d="M4060 1165 l0 -235 195 0 c209 0 240 6 282 51 39 42 66 117 65 183 0
71 -17 118 -61 168 -55 63 -76 68 -290 68 l-191 0 0 -235z"/>
</g>
</svg>
